<svg id="Capa_1" data-name="Capa 1" xmlns="http://www.w3.org/2000/svg" viewBox="0 0 41 41"><defs><style>.cls-1{fill:#fff;}.cls-2{fill:#1d1c15;fill-rule:evenodd;}</style></defs><title>Git</title><rect class="cls-1" width="41" height="41" rx="7.74" ry="7.74"/><path class="cls-2" d="M609.72,588a16.29,16.29,0,0,0-5.15,31.74c.82.15,1.11-.35,1.11-.78s0-1.41,0-2.77c-4.53,1-5.49-2.19-5.49-2.19a4.32,4.32,0,0,0-1.8-2.38c-1.48-1,.11-1,.11-1a3.43,3.43,0,0,1,2.49,1.68,3.46,3.46,0,0,0,4.74,1.35,3.43,3.43,0,0,1,1-2.17c-3.62-.42-7.42-1.81-7.42-8.06a6.32,6.32,0,0,1,1.67-4.37,5.93,5.93,0,0,1,.16-4.31s1.37-.44,4.48,1.67a15.41,15.41,0,0,1,8.16,0c3.11-2.11,4.47-1.67,4.47-1.67a5.9,5.9,0,0,1,.17,4.31,6.32,6.32,0,0,1,1.67,4.37c0,6.26-3.81,7.64-7.44,8a3.89,3.89,0,0,1,1.11,3c0,2.18,0,3.93,0,4.47s.29.94,1.12.78A16.29,16.29,0,0,0,609.72,588Z" transform="translate(-589.22 -583.41)"/></svg>