<svg id="Capa_1" data-name="Capa 1" xmlns="http://www.w3.org/2000/svg" viewBox="0 0 874.63 853.03"><defs><style>.cls-1{fill:#1e1d16;fill-rule:evenodd;}</style></defs><title>GitIcon</title><path class="cls-1" d="M660,179c-241.47,0-437.28,195.79-437.28,437.34,0,193.19,125.29,357.1,299.08,414.94,21.87,4,29.85-9.49,29.85-21.08,0-10.38-.38-37.89-.59-74.38C429.41,962.25,403.74,877.2,403.74,877.2c-19.88-50.52-48.55-64-48.55-64-39.71-27.13,3-26.58,3-26.58,43.89,3.09,67,45.06,67,45.06,39,66.83,102.35,47.53,127.27,36.34,4-28.26,15.27-47.53,27.76-58.46C483.1,798.55,381,761,381,593.45c0-47.74,17-86.78,45-117.35-4.5-11.06-19.51-55.52,4.29-115.73,0,0,36.71-11.76,120.25,44.83,34.88-9.7,72.3-14.55,109.49-14.72A419.56,419.56,0,0,1,769.54,405.2c83.49-56.59,120.14-44.83,120.14-44.83C913.53,420.58,898.53,465,894,476.1c28,30.57,45,69.61,45,117.35,0,168-102.25,205-199.67,215.8,15.7,13.5,29.69,40.19,29.69,81,0,58.46-.54,105.63-.54,120,0,11.69,7.88,25.3,30.07,21,173.63-58,298.81-221.75,298.81-414.89C1097.34,374.79,901.53,179,660,179Z" transform="translate(-222.72 -179)"/></svg>