<svg id="Capa_1" data-name="Capa 1" xmlns="http://www.w3.org/2000/svg" viewBox="0 0 786.5 929.76"><defs><style>.cls-1{fill:none;stroke:#000;stroke-miterlimit:10;}.cls-2{fill:#fff;}</style></defs><title>Logo</title><path class="cls-1" d="M456.21,111.8" transform="translate(-231.5 -208.24)"/><path class="cls-2" d="M910.81,1092.25,863.58,1138,572.71,827.2l1.07-1h-1.46V765.8h68.59A120.54,120.54,0,0,0,761.45,645.26V600.33A146.29,146.29,0,0,0,615.16,454H461.83V609H403.78V393.63H629c105.23,0,190.54,85.3,190.54,190.54v58.05A184,184,0,0,1,660.31,824.54Z" transform="translate(-231.5 -208.24)"/><path class="cls-2" d="M645.35,208.24H231.5v824H649.41a371.27,371.27,0,0,0,45.49-2.8l-44.3-52.93c-7.62.51-15.29.8-23,.8H283.93V263.17H632.86c183.75,0,332.71,149,332.71,332.71v43.38c0,115.8-58.25,218-147,278.89l40.62,48.55c96-66.55,158.83-177.47,158.83-303.1V580.9C1018,375.09,851.16,208.24,645.35,208.24Z" transform="translate(-231.5 -208.24)"/></svg>